<svg width="1357" xmlns="http://www.w3.org/2000/svg" height="1287" fill="none"><defs><clipPath id="a" class="frame-clip frame-clip-def"><rect rx="0" ry="0" width="1357" height="1287" transform="matrix(1.000000, 0.000000, 0.000000, 1.000000, 0.000000, 0.000000)"/></clipPath></defs><g class="frame-container-wrapper"><g class="frame-container-blur"><g clip-path="url(#a)" class="frame-container-shadows"><g class="fills"><rect width="1357" height="1287" class="frame-background" transform="matrix(1.000000, 0.000000, 0.000000, 1.000000, 0.000000, 0.000000)" style="fill: rgb(255, 255, 255); fill-opacity: 0;" ry="0" rx="0" fill="none"/></g><g style="fill: rgb(0, 0, 0);" class="frame-children"><path d="M616.807,296.819C521.477,303.705,455.602,315.326,389.873,336.990C238.534,386.631,136.675,469.127,104.028,568.408C94.741,596.816,93.000,607.719,93.000,640.431C93.000,670.990,94.306,680.028,101.996,705.710C133.192,809.439,243.177,900.543,395.531,948.749C490.281,978.878,591.415,992.938,695.886,990.786C837.358,987.773,967.512,956.353,1068.065,900.973C1159.768,850.472,1222.596,783.614,1247.118,710.444C1255.098,686.628,1258.000,667.690,1258.000,641.148C1257.855,615.754,1255.678,599.542,1249.439,577.877C1219.259,473.287,1115.077,386.488,960.837,337.134C895.543,316.187,838.229,305.427,757.989,298.827C726.502,296.245,641.474,295.097,616.807,296.819ZZM662.514,375.727L662.514,431.681L565.152,431.681L467.791,431.681L472.579,425.512C508.709,379.458,562.105,342.155,612.454,327.665C626.384,323.648,646.263,320.204,656.419,319.917L662.514,319.774L662.514,375.727ZZM723.310,323.361C745.946,328.095,780.189,342.442,802.099,356.359C827.056,372.284,859.558,401.409,876.244,422.786L883.209,431.681L785.267,431.681L687.180,431.681L687.180,375.584L687.180,319.344L699.949,320.204C707.059,320.778,717.506,322.069,723.310,323.361ZZM826.040,329.243C906.280,342.155,975.928,362.815,1037.885,392.227C1059.505,402.556,1089.830,419.486,1101.293,427.664L1106.952,431.681L1009.155,431.681L911.358,431.681L907.731,426.373C905.700,423.360,898.445,414.178,891.625,405.856C865.797,374.867,833.876,348.325,799.922,329.673L789.475,323.935L796.730,324.795C800.793,325.226,813.997,327.234,826.040,329.243ZZM551.513,330.247C539.034,336.130,516.109,351.481,501.309,363.676C486.073,376.301,462.132,401.122,449.508,417.764L438.916,431.681L347.939,431.824C297.880,431.824,254.205,432.111,250.868,432.398C247.385,432.685,244.628,432.398,244.628,431.681C244.628,430.103,270.891,413.747,288.884,404.135C357.661,367.693,438.481,342.299,527.572,329.100C539.905,327.234,552.674,325.800,555.866,325.656L561.525,325.513L551.513,330.247ZZM424.551,455.497C424.551,455.927,421.939,460.662,418.747,465.827C413.234,475.153,401.335,500.690,401.335,503.560C401.335,504.277,406.704,504.851,413.379,504.851L425.277,504.851L433.112,489.356C437.320,480.891,443.269,469.701,446.461,464.249L452.265,454.636L557.462,454.923L662.659,455.354L662.949,479.744L663.239,504.134L675.137,504.564L687.180,504.994L687.471,480.174L687.906,455.354L793.683,455.354L899.605,455.354L905.119,464.679C908.021,469.844,913.970,480.891,918.178,489.356L925.868,504.851L937.912,504.851C946.618,504.851,949.810,504.421,949.810,502.986C949.810,501.982,944.731,491.078,938.492,478.596C930.076,461.953,927.755,455.927,929.206,455.354C930.221,454.923,977.524,454.636,1034.112,454.636L1136.987,454.636L1149.611,465.970C1192.996,504.421,1224.047,558.365,1232.027,608.867C1234.059,621.062,1234.349,629.814,1233.768,647.604C1232.608,680.746,1227.965,698.967,1212.439,731.104C1198.219,760.515,1175.439,790.501,1151.062,811.878L1141.195,820.486L1034.693,820.486C976.073,820.486,928.045,820.056,928.045,819.482C928.045,818.765,931.527,811.304,935.880,802.552C940.233,793.944,945.457,782.753,947.343,777.732L951.116,768.837L938.202,768.837L925.433,768.837L921.515,778.449C916.727,790.501,902.217,817.904,899.896,819.338C899.025,819.912,850.852,820.486,792.813,820.486L687.180,820.486L687.180,794.231L687.180,768.119L674.847,768.550L662.369,768.980L662.514,794.375L662.804,819.769L556.736,820.199L450.669,820.486L446.751,814.460C444.720,811.017,439.061,800.257,434.418,790.357C429.630,780.458,425.422,771.563,424.696,770.415C423.971,768.837,420.488,768.263,411.637,768.263L399.739,768.119L400.610,771.706C401.916,776.871,412.508,801.261,417.441,810.300C419.763,814.460,421.214,818.621,420.779,819.195C420.343,819.912,372.025,820.486,313.405,820.486L206.903,820.486L195.005,809.295C156.263,772.854,129.710,727.804,119.553,681.033C115.055,659.656,114.910,620.919,119.553,599.972C130.290,551.192,160.326,502.268,201.969,465.683L214.593,454.636L319.500,454.636C377.249,454.636,424.551,455.067,424.551,455.497ZZM442.689,850.328C456.328,871.562,487.089,904.416,511.611,923.785C530.328,938.562,539.760,944.732,556.591,953.770C571.101,961.518,570.811,962.522,554.995,959.653C550.642,958.935,539.615,957.357,530.474,956.066C472.869,948.031,410.186,931.676,359.402,911.303C336.476,902.121,300.056,885.048,283.225,875.435C270.746,868.405,234.472,845.020,234.472,844.015C234.472,843.728,280.323,843.441,336.476,843.441L438.336,843.441L442.689,850.328ZZM663.239,902.695L663.239,961.805L653.082,961.374C606.215,959.509,553.834,933.541,505.952,888.491C493.328,876.727,471.128,851.763,467.936,845.880C466.630,843.585,471.708,843.441,564.862,843.441L663.239,843.441L663.239,902.695ZZM883.645,845.163C875.519,858.649,840.550,894.517,820.672,909.725C795.715,928.806,760.891,946.884,734.193,954.631C721.134,958.361,698.498,962.522,691.243,962.522L687.180,962.522L687.180,902.982L687.180,843.441L785.993,843.441C864.491,843.441,884.515,843.872,883.645,845.163ZZM1111.305,846.741C1097.230,858.219,1060.956,879.309,1028.163,894.804C977.524,918.907,923.692,936.841,868.409,948.031C850.562,951.618,801.228,959.222,787.299,960.370L776.416,961.374L791.652,953.627C829.378,934.545,864.201,905.564,894.092,868.549C900.476,860.658,907.151,851.763,909.037,848.750L912.374,843.441L1013.943,843.441L1115.513,843.441L1111.305,846.741ZZ" style="fill: rgb(255, 255, 255); fill-opacity: 1;" class="fills"/><path d="M963.449,531.967C963.159,532.254,962.869,579.169,962.869,635.983L962.869,739.425L985.359,739.712L1007.849,739.856L1007.849,706.427L1007.849,672.855L1063.422,672.425C1117.399,671.851,1119.140,671.707,1128.136,668.407C1140.615,663.960,1151.207,653.773,1155.995,641.865C1159.333,633.831,1159.478,631.535,1159.478,603.846C1159.478,576.730,1159.188,573.860,1156.140,566.400C1149.756,550.475,1139.309,540.145,1124.799,535.410C1118.270,533.258,1107.823,532.828,1040.787,532.110C998.563,531.680,963.739,531.680,963.449,531.967ZZM1106.662,578.451C1112.175,582.038,1114.062,587.347,1114.787,600.259C1115.658,614.749,1113.336,621.923,1106.662,626.370C1101.728,629.670,1101.293,629.670,1054.861,629.670L1007.849,629.670L1007.849,602.267L1007.849,575.008L1055.442,575.438C1097.956,575.869,1103.324,576.156,1106.662,578.451ZZ" style="fill: rgb(255, 255, 255); fill-opacity: 1;" class="fills"/><path d="M242.742,533.689C225.040,537.849,207.773,551.622,200.083,567.978C192.538,583.616,191.812,590.216,191.667,637.561C191.667,678.020,191.812,681.176,194.860,690.645C200.954,709.870,213.867,725.222,230.409,732.969C244.338,739.425,254.060,740.430,303.539,739.856C346.053,739.282,348.810,739.138,357.516,735.982C382.618,726.943,397.418,707.001,399.594,680.028C400.320,670.272,400.175,669.412,397.853,670.272C396.402,670.846,385.955,671.277,374.347,671.277L353.453,671.277L351.857,677.733C349.680,686.341,341.555,693.658,332.849,694.949C329.366,695.523,311.809,695.667,293.817,695.380C263.927,694.949,260.880,694.662,255.511,691.793C247.966,687.776,244.048,683.615,239.985,674.864C236.793,668.120,236.648,665.968,236.648,638.279C236.648,611.163,236.938,608.150,239.985,599.111C244.193,587.490,250.578,580.603,260.734,577.304C266.538,575.295,273.503,575.008,302.523,575.438C334.880,575.869,337.637,576.012,341.410,578.882C346.488,582.612,352.002,592.942,352.002,599.111L352.002,603.846L375.943,603.846L399.884,603.846L399.884,595.094C399.884,578.164,393.210,560.518,382.908,550.188C375.072,542.297,368.688,538.567,357.225,535.123C347.939,532.254,344.021,532.110,297.735,532.254C270.601,532.397,245.789,532.971,242.742,533.689ZZ" style="fill: rgb(255, 255, 255); fill-opacity: 1;" class="fills"/><path d="M426.002,635.696L426.002,739.425L448.493,739.569L470.983,739.856L470.983,706.284L470.983,672.711L504.501,672.998L538.164,673.429L557.897,705.997L577.631,738.564L604.909,738.995C619.855,739.282,632.043,738.995,632.043,738.564C632.043,737.560,595.623,678.450,591.415,672.711C587.788,667.690,587.788,666.973,591.415,666.973C592.866,666.973,598.525,664.964,603.894,662.382C615.937,656.643,623.482,647.891,627.690,634.405C631.753,621.206,631.898,583.903,627.835,570.991C622.611,554.492,615.066,545.310,600.847,538.280C589.384,532.541,582.564,532.110,502.905,532.110L426.002,532.110L426.002,635.696ZZM571.101,577.447C574.293,578.738,578.356,581.751,580.242,584.334C582.999,588.207,583.435,590.646,583.435,602.698C583.435,614.462,582.999,617.188,580.388,620.632C573.858,629.383,572.262,629.670,519.301,629.670L470.983,629.670L470.983,602.411L470.983,575.152L518.140,575.152C558.042,575.152,566.168,575.438,571.101,577.447ZZ" style="fill: rgb(255, 255, 255); fill-opacity: 1;" class="fills"/><path d="M663.239,635.409L663.094,738.564L684.714,738.995C696.612,739.282,706.624,739.138,706.914,738.851C707.204,738.564,707.494,691.793,707.494,635.122L707.494,532.110L685.439,532.110L663.239,532.110L663.239,635.409ZZ" style="fill: rgb(255, 255, 255); fill-opacity: 1;" class="fills"/><path d="M770.903,534.836C749.428,541.723,739.271,555.353,736.369,580.747C733.757,604.276,738.546,624.505,749.138,634.118C759.585,643.730,771.338,647.030,813.417,651.908C889.013,660.660,888.433,660.516,893.221,666.542C897.139,671.420,897.139,681.894,893.221,688.206C887.852,696.815,885.096,697.245,835.181,696.815C792.522,696.384,790.201,696.241,786.283,693.371C783.816,691.650,781.350,687.776,780.044,683.759L777.867,677.016L756.538,677.016L735.063,677.016L735.063,688.206C735.063,713.601,745.220,729.669,765.969,736.843C772.789,739.138,779.463,739.425,835.181,739.425C896.123,739.425,896.994,739.425,905.119,736.125C916.437,731.534,922.096,727.517,928.335,719.339C937.476,707.431,938.927,701.262,938.927,674.146C938.927,651.047,938.782,650.330,934.719,642.152C929.061,630.675,918.613,623.358,902.653,619.627C899.460,618.767,872.907,615.323,843.597,611.736C809.934,607.719,788.605,604.563,785.848,603.128C779.899,600.115,778.158,596.098,779.028,587.633C779.463,582.038,780.624,579.599,783.526,577.017C790.346,571.278,797.020,570.417,838.083,571.134C875.664,571.708,876.680,571.708,882.919,575.152C887.998,578.021,889.884,580.030,891.480,584.764L893.511,590.933L915.276,590.933L937.186,590.933L936.170,581.751C933.849,558.796,923.111,542.871,905.409,535.697C898.735,533.115,894.237,532.828,838.809,532.541C783.962,532.254,778.738,532.397,770.903,534.836ZZ" style="fill: rgb(255, 255, 255); fill-opacity: 1;" class="fills"/></g></g></g></g></svg>