<svg width="1494" xmlns="http://www.w3.org/2000/svg" height="1391" fill="none"><path d="M1302.986,1142.120L1494.000,1142.120L1494.000,1350.088L1302.986,1350.088L1302.986,1142.120Z" style="fill: rgb(109, 143, 137); fill-opacity: 1;" class="fills"/><path d="M695.836,0.000C1079.878,0.000,1391.671,311.643,1391.671,695.500C1391.671,1079.357,1079.878,1391.000,695.836,1391.000C311.793,1391.000,0.000,1079.357,0.000,695.500C0.000,311.643,311.793,0.000,695.836,0.000ZM695.836,253.832C451.955,253.832,253.955,451.737,253.955,695.500C253.955,939.263,451.955,1137.168,695.836,1137.168C939.716,1137.168,1137.717,939.263,1137.717,695.500C1137.717,451.737,939.716,253.832,695.836,253.832Z" style="fill: rgb(234, 157, 52); fill-opacity: 1;" class="fills"/><path d="M382.027,657.998L382.027,693.795L382.027,699.501L382.027,1247.809L610.772,994.131C637.828,1001.699,666.360,1005.748,695.836,1005.748C869.031,1005.748,1009.644,865.966,1009.644,693.795C1009.644,521.624,869.031,381.843,695.836,381.843C522.640,381.843,382.027,521.624,382.027,693.795C382.027,696.024,382.051,698.247,382.098,700.465" style="fill: rgb(64, 61, 82); fill-opacity: 1;" class="fills"/></svg>