<svg xmlns="http://www.w3.org/2000/svg" viewBox="0 0 305.797 42.729">
  <title>wordmark-dukeuniversity-gothic</title>
  <g id="Layer_2" data-name="Layer 2">
    <g id="Layer_1-2" data-name="Layer 1">
      <g id="wordmark-dukeuniversity-gothic">
        <g id="wordmark">
          <g id="duke">
            <g id="duke-D">
              <path d="M5.744,17.281a12.9901,12.9901,0,0,0,.19,2.042h.617c.285-1.662.712-2.185,2.516-2.185h1.045v6.031a2.26141,2.26141,0,0,1-1.425,2.089v.663c3.704-.379,5.412-2.373,5.412-4.984V8.45a2.47536,2.47536,0,0,1,1.473-2.278l-.238-.618c-1.993.712-5.222,1.947-5.222,5.746l.048,2.278c-2.897.332-4.416.474-4.416,3.703" style="fill: #00539b"/>
              <path d="M32.426,27.014V6.693C32.426.996,27.156,0,22.503,0a45.36978,45.36978,0,0,0-6.836.759,48.156,48.156,0,0,1-7.549.807C5.887,1.566,4.367.996,3.893,0H2.8c1.14,3.845,4.986,4.699,8.499,4.699a53.07964,53.07964,0,0,0,6.03-.616V27.014a31.4388,31.4388,0,0,0-3.467-.428C8.166,26.586,0,28.629,0,35.607c0,4.748,6.267,6.172,9.97,6.172A29.76647,29.76647,0,0,0,16,41.067l-.476-.854a34.81307,34.81307,0,0,1-5.602.712c-3.655,0-9.068-1.235-9.068-5.697,0-4.274,4.795-5.887,8.356-5.887a17.785,17.785,0,0,1,9.923,3.132H20.32c1.946-1.329,4.795-4.036,10.302-4.036.902,0,1.804.096,2.707.144v-.903a1.22546,1.22546,0,0,1-.903-.664m-3.988.57a15.17411,15.17411,0,0,0-5.128,1.709,15.47577,15.47577,0,0,0-5.127-2.042V20.747A17.15,17.15,0,0,1,23.5,19.655a10.61346,10.61346,0,0,1,4.938,1.424Zm0-7.454a9.72517,9.72517,0,0,0-5.128-1.328,16.00424,16.00424,0,0,0-5.127,1.09V11.821a12.24129,12.24129,0,0,0,5.175,1.282,13.26317,13.26317,0,0,0,5.08-.997Zm0-8.973a9.50337,9.50337,0,0,1-4.558,1.092,12.46775,12.46775,0,0,1-5.697-1.377V3.893c1.567,0,3.133-.475,4.7-.475,4.131,0,5.555,1.139,5.555,4.463Z" style="fill: #00539b"/>
            </g>
            <path id="duke-U" d="M57.352,28.96,55.31,26.967V17.993l3.371-2.373-.475-.712c-.569.379-1.566,1.187-2.231,1.187-.902,0-2.231-1.377-3.086-2.374h-.712l-4.131,3.038.333.807,1.234-.759,1.852,1.519v7.549l-4.701,3.181-2.469-1.568V17.566a2.96674,2.96674,0,0,0-.664-2.326l-1.472-1.567h-.76l-4.415,3.039.617.76,1.472-1.045,1.614,1.661v9.639l-3.703,2.61.475.617a4.27789,4.27789,0,0,1,2.327-1.233c.997,0,2.42,1.281,3.655,2.278h.76l7.311-4.937c0,1.851.142,2.516.665,3.086l1.709,1.851h.902l4.083-3.039-.475-.522Z" style="fill: #00539b"/>
            <path id="duke-K" d="M78.29,29.341c-.381,0-.76-.712-1.093-1.377a52.69279,52.69279,0,0,0-3.323-6.457l4.7-2.707v-.238l-4.273-4.889h-.759l-6.22,3.845V8.07a12.13626,12.13626,0,0,1,2.042-6.267l-.427-.426a22.09783,22.09783,0,0,0-3.941,4.225,7.4498,7.4498,0,0,0-1.282-2.517l-.57.095a16.07222,16.07222,0,0,1,.57,3.846V27.821l-2.896,1.946.665.618a2.71873,2.71873,0,0,1,1.519-.902c.522-.048,1.757,1.9,2.848,2.516h.713l4.557-3.276-.522-.521-1.187.664-2.089-1.52V25.067l3.466-1.898c1.709,1.851,3.086,8.214,4.605,8.83h.76l4.083-2.801-.522-.569a3.36776,3.36776,0,0,1-1.424.712M67.322,24.07V18.658l4.368-2.706,3.276,3.846Z" style="fill: #00539b"/>
            <path id="duke-E" d="M91.06,13.673a17.854,17.854,0,0,1-8.451,2.85,1.88538,1.88538,0,0,0,1.14,1.377V28.012l-2.754,1.613.665.523a4.47926,4.47926,0,0,1,1.803-.712c1.235,0,3.087,1.756,4.179,2.563h.759l7.359-4.131-.665-.664-3.75,2.089-3.988-2.042V24.878l8.546-4.891v-.711l-4.32-5.603ZM87.357,23.88V16.379c.475-.144,1.139-.427,1.614-.617l3.751,4.985Z" style="fill: #00539b"/>
          </g>
          <g id="university">
            <path id="university-U" d="M142.43,29.388a4.78481,4.78481,0,0,1-2.279-1.709V4.938l4.178-2.754-.522-.665a3.46958,3.46958,0,0,1-2.041,1.093c-1.331,0-2.992-1.568-3.751-2.612h-.618l-5.745,4.13.428.713,1.614-1.045a7.73794,7.73794,0,0,0,2.469,1.472V9.875a12.98807,12.98807,0,0,1-3.894.712A11.73071,11.73071,0,0,1,127,9.59V0h-.855V28.486a11.20769,11.20769,0,0,0-3.276-1.471V6.267c0-3.893-2.801-6.267-6.504-6.267-4.036,0-6.552,3.703-6.789,7.454h.759a5.08359,5.08359,0,0,1,4.511-3.56c2.088,0,4.035,1.186,4.035,3.749v6.315c-2.041.142-5.46.428-5.46,3.37a10.06658,10.06658,0,0,0,.475,2.138h.902c.38-1.234.855-1.994,2.469-1.994h1.614v9.447c-4.747.523-9.353,3.988-9.353,8.974,0,4.13,3.323,5.886,6.98,5.886a13.06791,13.06791,0,0,0,3.038-.378v-.808a14.6436,14.6436,0,0,1-2.849.332c-3.228,0-6.314-1.234-6.314-4.89,0-4.084,3.418-5.698,7.027-5.698a11.75105,11.75105,0,0,1,6.314,2.137h1.424l11.015-6.742v2.897a5.165,5.165,0,0,0,2.421,3.845h.902l5.032-3.37-.522-.712Zm-6.267-4.652-8.023,4.842L127,28.866V19.987a10.8131,10.8131,0,0,1,4.415-.902,11.439,11.439,0,0,1,4.748,1.045Zm0-5.603a14.75684,14.75684,0,0,0-4.083-.901,11.69752,11.69752,0,0,0-5.08.997V10.445a11.78592,11.78592,0,0,0,4.605.997,17.43922,17.43922,0,0,0,4.558-.663Z" style="fill: #00539b"/>
            <path id="university-N" d="M166.83405,28.913a3.283,3.283,0,0,1-2.137-3.371V18.088l3.561-2.468-.57-.712a3.82074,3.82074,0,0,1-2.279,1.187c-.807,0-2.231-1.424-2.943-2.422h-.807l-7.976,5.697c-.048-2.801-.19-3.513-.523-3.846l-1.661-1.851h-.903l-4.367,3.18.712.665,1.14-.949,1.993,1.852v9.495l-3.656,2.658.76.617a2.92441,2.92441,0,0,1,2.041-1.281c1.093,0,2.28,1.329,3.087,2.089h.665l4.605-3.323-.57-.57-1.235.76-2.088-1.329V20.652L159,16.569l2.089,1.71v9.827c0,1.995,1.187,2.848,2.516,3.893h.713l4.13-2.991-.523-.806Z" style="fill: #00539b"/>
            <g id="university-I1">
              <path d="M179.272,29.103a3.04136,3.04136,0,0,1-1.993-2.47V17.899l3.418-2.612-.617-.712a3.83686,3.83686,0,0,1-1.709.949c-.713,0-2.327-1.472-2.991-2.041h-.428l-4.842,3.418.711.57,1.425-.902,1.424,1.234V29.15c0,1.235,1.282,2.279,1.995,2.849h1.139l4.557-3.324-.474-.617Z" style="fill: #00539b"/>
              <polygon points="173.053 7.406 175.284 9.399 175.902 9.399 179.985 5.934 179.462 5.316 178.133 6.313 175.855 4.463 175.284 4.463 171.059 7.881 171.724 8.45 173.053 7.406" style="fill: #00539b"/>
            </g>
            <path id="university-V" d="M202.726,15.524l-.712-.806c-.522.617-.855.949-1.424.949a9.99608,9.99608,0,0,1-3.371-1.994h-1.14l-6.788,3.419c-1.52-2.137-1.9-3.182-1.9-4.7,0-4.178,3.655-6.505,6.979-7.407l-.047-.902c-4.368.854-10.635,4.984-10.635,10.017a5.5518,5.5518,0,0,0,2.089,4.226v8.925l-2.991,2.042.57.617a2.87255,2.87255,0,0,1,1.661-.617c1.472,0,3.039,1.614,4.321,2.706h.902c1.851-2.136,5.127-2.991,10.873-3.323v-.76l-.951-.428V17.472Zm-6.172,12.725a15.62018,15.62018,0,0,0-3.323.854l-3.846-2.136V18.088l3.75-1.852,3.419,1.617Z" style="fill: #00539b"/>
            <path id="university-E" d="M213.693,13.673a17.85394,17.85394,0,0,1-8.451,2.85,1.88764,1.88764,0,0,0,1.14,1.377V28.012l-2.754,1.613.665.523a4.47809,4.47809,0,0,1,1.804-.712c1.234,0,3.085,1.756,4.178,2.563h.759l7.36-4.131-.665-.664-3.751,2.089-3.988-2.042V24.878l8.546-4.891v-.711l-4.32-5.603ZM209.99,23.88V16.379c.475-.144,1.14-.427,1.614-.617l3.75,4.985Z" style="fill: #00539b"/>
            <path id="university-R" d="M235.532,15.667c-1.044,0-2.042-1.188-2.469-1.994h-.665l-4.32,4.368c0-.665-.094-2.327-1.045-3.086l-1.614-1.282h-.617l-4.226,3.086.76.76c.381-.331.76-.807,1.235-.807.379,0,.711.38.902.616l.997.998v9.021l-3.704,2.754.665.617c.713-.571,1.33-1.425,2.278-1.425.998,0,2.47,1.378,3.752,2.706h.902l5.269-3.607-.664-.571-2.041,1.283-2.849-1.757V19.229l2.089-2.041a3.51618,3.51618,0,0,0,3.038,1.518c1.472,0,3.562-1.71,3.562-2.279,0-.57-.38-.76-1.235-.76" style="fill: #00539b"/>
            <path id="university-S" d="M257.229,21.601c0-.38-.19-.522-.664-.522h-6.41l6.504-6.98-.569-.427a6.78249,6.78249,0,0,1-3.656,1.283,8.59388,8.59388,0,0,1-3.703-1.283h-.712a12.51377,12.51377,0,0,1-6.457,2.517c-.997.095-1.757.095-1.757.523,0,.379.618.569,1.282,1.091v4.558l-.57.237c-.427.191-.807.617-.807.855,0,.332.427.522.807.522h5.982l-6.979,7.454.617.427a6.54745,6.54745,0,0,1,3.418-1.376,9.34066,9.34066,0,0,1,4.70105,1.519h.759c1.33-1.519,4.274-2.706,7.312-2.944.522-.048.807-.048.807-.332,0-.332-.475-.855-.997-1.045v-5.27c.571-.142,1.092-.571,1.092-.807m-12.534.048V16.474l.807-.38c1.092,1.044,1.662,1.567,3.181,1.567A10.572,10.572,0,0,0,253.622,16l.094.094-5.127,5.555Zm7.834,7.501h-.712a6.58252,6.58252,0,0,0-4.131-1.424,10.45228,10.45228,0,0,0-4.938,1.661l-.094-.094,5.649-6.124h4.226Z" style="fill: #00539b"/>
            <g id="university-I2">
              <polygon points="262.688 7.406 264.92 9.399 265.537 9.399 269.621 5.934 269.098 5.316 267.769 6.313 265.488 4.463 264.92 4.463 260.694 7.881 261.359 8.45 262.688 7.406" style="fill: #00539b"/>
              <path d="M268.907,29.103a3.04173,3.04173,0,0,1-1.995-2.47V17.899l3.419-2.612-.617-.712a3.83356,3.83356,0,0,1-1.708.949c-.713,0-2.328-1.472-2.992-2.041h-.427l-4.843,3.418.712.57,1.424-.902,1.425,1.234V29.15c0,1.235,1.28205,2.279,1.994,2.849h1.14l4.557-3.324-.474-.617Z" style="fill: #00539b"/>
            </g>
            <path id="university-T" d="M282.296,28.96l-2.089-1.423V16.142h3.086l1.282-3.086-.427-.332a2.8424,2.8424,0,0,1-1.995.949H280.207V4.89l-3.609,2.231v6.552h-2.279l-1.281,3.086.57.237a1.544,1.544,0,0,1,1.519-.854h1.471V27.584l-3.56,2.326.523.617a3.1943,3.1943,0,0,1,1.851-.806c.949,0,2.657,1.376,3.75,2.278h.57l4.89-3.703-.57-.569Z" style="fill: #00539b"/>
            <path id="university-Y" d="M302.997,26.254V17.709l2.8-1.947-.522-.712a2.80573,2.80573,0,0,1-1.567.854c-.76,0-1.852-1.946-2.706-2.231h-.949l-8.024,5.46v-2.61a2.66909,2.66909,0,0,0-1.71-2.85h-.901l-3.845,2.611.521.617,1.093-.617,1.234,1.425v8.925c0,2.991,1.756,4.416,5.223,4.844v.094c-2.279.379-4.986,1.33-4.986,4.083,0,2.041,1.757,3.039,3.608,3.039a16.832,16.832,0,0,0,4.701-.855,16.74834,16.74834,0,0,1,4.082-.807,1.48959,1.48959,0,0,1,1.663,1.329c0,2.849-6.125,3.514-8.167,3.514a18.16486,18.16486,0,0,1-3.608-.429v.761a11.78718,11.78718,0,0,0,3.467.522c3.228,0,9.637-.854,9.637-5.318,0-2.326-1.852-3.323-3.941-3.323a18.00446,18.00446,0,0,0-4.557.808,15.85344,15.85344,0,0,1-4.036.854c-1.045,0-1.519-.617-1.519-1.14,0-4.556,13.009.048,13.009-8.356m-10.968,1.71V20.225l5.459-3.702,1.899,1.233V27.964c0,1.994-1.091,2.801-3.703,2.801-2.61,0-3.655-.807-3.655-2.801" style="fill: #00539b"/>
          </g>
        </g>
      </g>
    </g>
  </g>
</svg>
