<svg xmlns="http://www.w3.org/2000/svg" width="163" height="53"><path d="m16.929 10.2 3.61 10.967h-6.758ZM14.089.187 5.073 30.375H1.21v5.16h12.926v-5.16H11.3l1.206-4.049h9.306l1.136 4.05h-3.211v5.158h13.787v12.287h-3.61v5.16H42.91v-5.16H39.3V35.534h7.487v2.064h4.693V28.31h-4.693v2.064H39.3v-9.208H51.12v3.439h5.415v-8.599h-26.62v5.16h3.61v9.208h-4.278L19.883.187ZM79.833 13.26c0 1.812-1.253 2.862-2.917 2.862-1.696 0-2.939-1.05-2.939-2.862V9.215h1.145v4.117c0 1.194.789 1.791 1.794 1.791.994 0 1.771-.597 1.771-1.79V9.214h1.145v4.045zm8.133-4.045v6.907h-.39l-4.342-4.704v4.59H82.09V9.102h.4l4.332 4.694v-4.58Zm3.488 6.793H90.31V9.215h1.145zm7.561-5.815h-2.409v5.815h-1.145v-5.815h-2.398v-.978h5.952zm6.298 0h-3.544v1.74h2.668v.947h-2.668v2.15h3.673v.978h-4.819V9.215h4.69v.978zm8.111 2.408c0 1.976-1.524 3.407-3.878 3.407h-2.236V9.215h2.236c2.355 0 3.878 1.38 3.878 3.386zm-4.97-2.398v4.828h1.081c1.674 0 2.712-1.02 2.712-2.43 0-1.45-1.038-2.398-2.712-2.398zm14.885.114-.799.586c-.367-.524-.885-.823-1.502-.823-.572 0-1.08.268-1.08.823 0 .515.41.7.994.968l.8.35c1.08.474 1.706.999 1.706 1.935 0 1.204-1.026 1.966-2.387 1.966-1.189 0-2.15-.576-2.69-1.472l.81-.587c.41.566.983 1.08 1.869 1.08.734 0 1.232-.359 1.232-.946 0-.535-.422-.741-1.048-1.019l-.79-.35c-.918-.402-1.663-.927-1.663-1.884 0-1.122 1.016-1.842 2.247-1.842 1.048 0 1.87.515 2.301 1.215zm7.356-.124h-2.409v5.815h-1.145v-5.815h-2.398v-.978h5.952zm5.076 4.683h-3.208l-.508 1.132h-1.221l3.144-6.906h.389l3.143 6.906h-1.231zm-1.599-3.757-1.188 2.82h2.366zm9.43-.926h-2.408v5.815h-1.145v-5.815h-2.399v-.978h5.953zm6.297 0h-3.543v1.74h2.668v.947h-2.668v2.15h3.673v.978h-4.819V9.215h4.689v.978zm6.448.124-.799.586c-.367-.524-.885-.823-1.502-.823-.573 0-1.08.268-1.08.823 0 .515.41.7.994.968l.799.35c1.08.474 1.707.999 1.707 1.935 0 1.204-1.026 1.966-2.387 1.966-1.189 0-2.15-.576-2.69-1.472l.81-.587c.41.566.983 1.08 1.868 1.08.735 0 1.232-.359 1.232-.946 0-.535-.421-.741-1.048-1.019l-.789-.35c-.918-.402-1.663-.927-1.663-1.884 0-1.122 1.015-1.842 2.247-1.842 1.048 0 1.87.515 2.301 1.215z" style="fill:#004185;stroke-width:.47334188"/><path d="M75.209 33.476h-5.833l-.922 2.058h-2.22l5.715-12.555h.707l5.715 12.555h-2.239zm-2.907-6.83-2.16 5.127h4.301zm10.212 8.888h-2.082V23.185h2.082zm11.41 0-3.692-4.771h-2.376v4.77h-2.081V23.186h4.733c2.631 0 4.399 1.534 4.399 3.78 0 1.627-.943 2.9-2.495 3.48l3.889 5.09h-2.377zm-6.068-6.53h2.612c1.473 0 2.298-.841 2.298-2.02 0-1.198-.825-2.04-2.298-2.04h-2.612zm24.136-4.041h-6.245v3.686h5.145v1.796h-5.145v5.09h-2.082v-12.35h8.327zm14.788 4.397c0 3.629-3.064 6.38-6.815 6.38-3.79 0-6.795-2.77-6.795-6.38 0-3.612 3.024-6.381 6.795-6.381 3.75 0 6.815 2.77 6.815 6.38zm-11.45-.02c0 2.658 1.964 4.585 4.655 4.585 2.65 0 4.654-1.927 4.654-4.584 0-2.601-2.003-4.547-4.654-4.547-2.69 0-4.655 1.927-4.655 4.547zm22.094 6.194-3.692-4.771h-2.376v4.77h-2.082V23.186h4.733c2.632 0 4.4 1.534 4.4 3.78 0 1.627-.943 2.9-2.495 3.48l3.888 5.09h-2.376zm-6.069-6.53h2.613c1.472 0 2.297-.841 2.297-2.02 0-1.198-.825-2.04-2.297-2.04h-2.613zm21.603-3.18-1.571 1.104c-.903-1.33-2.239-2.134-3.967-2.134-2.67 0-4.674 1.928-4.674 4.566s2.003 4.566 4.674 4.566c1.728 0 3.063-.805 3.967-2.134l1.571 1.105c-1.08 1.721-3.122 2.843-5.558 2.843-3.79 0-6.815-2.75-6.815-6.38 0-3.611 3.025-6.38 6.815-6.38 2.436 0 4.458 1.122 5.558 2.843zm11.017-.861h-6.44v3.162h4.85v1.722h-4.85v3.91h6.676v1.778h-8.759v-12.35h8.523zm-85.31 25.96h-5.832l-.923 2.058h-2.22l5.715-12.556h.707l5.715 12.556h-2.239zm-2.907-6.83-2.16 5.127H77.9zm19.383-.823-1.57 1.103c-.904-1.328-2.24-2.132-3.968-2.132-2.67 0-4.674 1.927-4.674 4.565 0 2.638 2.003 4.566 4.674 4.566 1.728 0 3.064-.805 3.968-2.133l1.57 1.104c-1.08 1.721-3.122 2.844-5.557 2.844-3.79 0-6.815-2.75-6.815-6.381 0-3.61 3.024-6.38 6.815-6.38 2.435 0 4.457 1.123 5.557 2.844zm10.075 7.652h-5.832l-.923 2.059h-2.219l5.714-12.556h.707l5.715 12.556h-2.239zm-2.907-6.83-2.16 5.128h4.301zm19.246 2.695c0 3.592-2.77 6.193-7.05 6.193h-4.065V40.631h4.065c4.28 0 7.05 2.507 7.05 6.156zm-9.033-4.36v8.776h1.964c3.043 0 4.929-1.853 4.929-4.416 0-2.638-1.886-4.36-4.93-4.36h-1.963zm20.03-.018h-6.44v3.162h4.85v1.722h-4.85v3.91h6.676v1.778h-8.759v-12.35h8.524zm14.965-1.984v12.556h-2.082v-7.747l-3.71 4.64h-.708l-3.731-4.64v7.747h-2.082V40.425h.727l5.44 6.905 5.44-6.905zm8.759 7.56v4.996h-2.082v-4.977l-4.477-7.372h2.317l3.201 5.37 3.221-5.37h2.298z" style="fill:#1c2f5b;stroke-width:.47334188"/></svg>